<?xml version="1.0" encoding="UTF-8" standalone="no"?>
<svg
   xmlns:dc="http://purl.org/dc/elements/1.1/"
   xmlns:cc="http://creativecommons.org/ns#"
   xmlns:rdf="http://www.w3.org/1999/02/22-rdf-syntax-ns#"
   xmlns:svg="http://www.w3.org/2000/svg"
   xmlns="http://www.w3.org/2000/svg"
   xmlns:sodipodi="http://sodipodi.sourceforge.net/DTD/sodipodi-0.dtd"
   xmlns:inkscape="http://www.inkscape.org/namespaces/inkscape"
   viewBox="0 0 448 512"
   version="1.1"
   id="svg4"
   sodipodi:docname="close.svg"
   inkscape:version="0.92.5 (2060ec1f9f, 2020-04-08)">
  <metadata
     id="metadata10">
    <rdf:RDF>
      <cc:Work
         rdf:about="">
        <dc:format>image/svg+xml</dc:format>
        <dc:type
           rdf:resource="http://purl.org/dc/dcmitype/StillImage" />
      </cc:Work>
    </rdf:RDF>
  </metadata>
  <defs
     id="defs8" />
  <sodipodi:namedview
     pagecolor="#ffffff"
     bordercolor="#666666"
     borderopacity="1"
     objecttolerance="10"
     gridtolerance="10"
     guidetolerance="10"
     inkscape:pageopacity="0"
     inkscape:pageshadow="2"
     inkscape:window-width="956"
     inkscape:window-height="480"
     id="namedview6"
     showgrid="false"
     inkscape:zoom="0.4609375"
     inkscape:cx="179.52542"
     inkscape:cy="256"
     inkscape:window-x="0"
     inkscape:window-y="48"
     inkscape:window-maximized="0"
     inkscape:current-layer="svg4" />
  <path
     d="m 142.1164,393.26324 77.93466,-85.04449 88.86752,87.88295 c 10.90479,10.78399 27.50394,11.06645 37.06715,0.63079 l 17.31882,-18.89878 c 9.56324,-10.43566 8.47527,-27.64436 -2.42952,-38.42832 l -88.86753,-87.88298 77.93466,-85.04449 c 9.56323,-10.43566 8.47525,-27.64434 -2.42951,-38.42831 L 327.76429,108.52006 C 316.85952,97.736095 300.26039,97.453626 290.69715,107.88929 L 212.7625,192.93378 123.89496,105.05083 C 112.99017,94.266844 96.391044,93.984379 86.827804,104.42005 l -17.31881,18.89878 c -9.563227,10.43567 -8.475257,27.64434 2.42952,38.42832 l 88.867526,87.88296 -77.934646,85.04449 c -9.56324,10.43567 -8.47527,27.64435 2.42953,38.42832 l 19.748336,19.52954 c 10.90477,10.78398 27.50392,11.06645 37.06714,0.63078 z"
     id="path2"
     style="fill:#999999;stroke-width:0.83353078"
     inkscape:connector-curvature="0" />
</svg>
