<?xml version="1.0" encoding="utf-8"?>
<!-- Generator: Adobe Illustrator 25.2.2, SVG Export Plug-In . SVG Version: 6.00 Build 0)  -->
<svg version="1.1" id="Layer_1" xmlns="http://www.w3.org/2000/svg" xmlns:xlink="http://www.w3.org/1999/xlink" x="0px" y="0px"
	 viewBox="0 0 73.9 73.9" style="enable-background:new 0 0 73.9 73.9;" xml:space="preserve">
<style type="text/css">
	.st0{fill:none;}
	.st1{fill:#A7A9AC;}
</style>
<g id="Drawn">
	<path class="st0" d="M25.9,21.1h-8.2v36.6c0,3.1,2.5,5.5,5.5,5.5h27.4c3.1,0,5.5-2.5,5.5-5.5V21.1H25.9z M26.9,56.1
		c0,0.6-0.4,1-1,1s-1-0.4-1-1V28.3c0-0.6,0.4-1,1-1s1,0.4,1,1V56.1z M37.9,56.1c0,0.6-0.4,1-1,1s-1-0.4-1-1V28.3c0-0.6,0.4-1,1-1
		s1,0.4,1,1V56.1z M49,28.3V56c0,0.6-0.4,1-1,1s-1-0.4-1-1V28.3c0-0.6,0.4-1,1-1S49,27.8,49,28.3z"/>
	<path class="st0" d="M47,18.9c0-4.6-3.7-8.2-8.2-8.3h-3.6c-4.6,0-8.2,3.7-8.2,8.3v0.2H47V18.9z"/>
	<path class="st1" d="M62.5,19.1H49v-0.2c0-5.6-4.6-10.2-10.2-10.2h-3.6c-5.6,0-10.2,4.6-10.2,10.2v0.2H11.4c-0.6,0-1,0.4-1,1
		s0.4,1,1,1h4.3v36.7c0,4.2,3.4,7.5,7.5,7.5h27.4c4.2,0,7.5-3.4,7.5-7.5V21.1h4.3c0.6,0,1-0.4,1-1S63.1,19.1,62.5,19.1z M26.9,18.9
		c0-4.6,3.7-8.2,8.2-8.3h3.6c4.6,0,8.2,3.7,8.2,8.3v0.2H26.9V18.9z M56.2,57.7c0,3.1-2.5,5.5-5.5,5.5H23.3c-3.1,0-5.5-2.5-5.5-5.5
		V21.1h38.4V57.7z"/>
	<path class="st1" d="M25.9,27.3c-0.6,0-1,0.4-1,1V56c0,0.6,0.4,1,1,1s1-0.4,1-1V28.3C26.9,27.8,26.5,27.3,25.9,27.3z"/>
	<path class="st1" d="M47,28.3V56c0,0.6,0.4,1,1,1s1-0.4,1-1V28.3c0-0.6-0.4-1-1-1S47,27.8,47,28.3z"/>
	<path class="st1" d="M37,27.3c-0.6,0-1,0.4-1,1V56c0,0.6,0.4,1,1,1s1-0.4,1-1V28.3C38,27.8,37.6,27.3,37,27.3z"/>
</g>
</svg>
